HIERARCHY
ROOT Hips
{
	OFFSET 0.00 0.00 0.00
	CHANNELS 6 Xposition Yposition Zposition Xrotation Yrotation Zrotation
	JOINT Spine
	{
		OFFSET 0.00000 7.53995 0.00000
		CHANNELS 3 Xrotation Yrotation Zrotation
		JOINT Head
		{
			OFFSET 0.00000 15.09381 0.00000
			CHANNELS 3 Xrotation Yrotation Zrotation
			End Site
			{
				OFFSET 0.00000 4.52755 0.00000
			}
		}
		JOINT LeftShoulder
		{
			OFFSET 0.00000 9.73893 0.00000
			CHANNELS 3 Xrotation Yrotation Zrotation
			JOINT LeftArm
			{
				OFFSET 7.08401 0.00000 0.00000
				CHANNELS 3 Xrotation Yrotation Zrotation
				JOINT LeftForeArm
				{
					OFFSET 10.25932 0.00000 0.00000
					CHANNELS 3 Yrotation Zrotation Xrotation
					JOINT LeftHand
					{
						OFFSET 9.89698 0.00000 0.00000
						CHANNELS 3 Xrotation Yrotation Zrotation
						JOINT LeftHandThumb1
						{
							OFFSET 0.00000 0.00000 0.00000
							CHANNELS 3 Xrotation Zrotation Yrotation
							End Site
							{
								OFFSET 0.00000 0.00000 3.93700
							}
						}
						End Site
						{
							OFFSET 3.93700 0.00000 0.00000
						}
					}
				}
			}
		}
		JOINT RightShoulder
		{
			OFFSET 0.00000 9.73893 0.00000
			CHANNELS 3 Xrotation Yrotation Zrotation
			JOINT RightArm
			{
				OFFSET -7.08401 0.00000 0.00000
				CHANNELS 3 Xrotation Yrotation Zrotation
				JOINT RightForeArm
				{
					OFFSET -10.25932 0.00000 0.00000
					CHANNELS 3 Yrotation Zrotation Xrotation
					JOINT RightHand
					{
						OFFSET -9.89698 0.00000 0.00000
						CHANNELS 3 Xrotation Yrotation Zrotation
						JOINT RightHandThumb1
						{
							OFFSET 0.00000 0.00000 0.00000
							CHANNELS 3 Xrotation Zrotation Yrotation
							End Site
							{
								OFFSET 0.00000 0.00000 3.93700
							}
						}
						End Site
						{
							OFFSET -3.93700 0.00000 0.00000
						}
					}
				}
			}
		}
	}
	JOINT LeftUpLeg
	{
		OFFSET 3.34548 0.00000 0.00000
		CHANNELS 3 Xrotation Yrotation Zrotation
		JOINT LeftLeg
		{
			OFFSET 0.00000 -19.11473 0.00000
			CHANNELS 3 Xrotation Yrotation Zrotation
			JOINT LeftFoot
			{
				OFFSET 0.00000 -16.04560 0.00000
				CHANNELS 3 Xrotation Yrotation Zrotation
				JOINT LeftToeBase
				{
					OFFSET 0.00000 -1.43467 5.35428
					CHANNELS 3 Xrotation Yrotation Zrotation
					End Site
					{
						OFFSET 0.00000 0.00000 2.95275
					}
				}
			}
		}
	}
	JOINT RightUpLeg
	{
		OFFSET -3.34548 0.00000 0.00000
		CHANNELS 3 Xrotation Yrotation Zrotation
		JOINT RightLeg
		{
			OFFSET 0.00000 -19.11473 0.00000
			CHANNELS 3 Xrotation Yrotation Zrotation
			JOINT RightFoot
			{
				OFFSET 0.00000 -16.04560 0.00000
				CHANNELS 3 Xrotation Yrotation Zrotation
				JOINT RightToeBase
				{
					OFFSET 0.00000 -1.43467 5.35428
					CHANNELS 3 Xrotation Yrotation Zrotation
					End Site
					{
						OFFSET 0.00000 0.00000 2.95275
					}
				}
			}
		}
	}
}
MOTION
Frames:	18
Frame Time: 0.008333
8.3818 36.5072 -2.7199 15.6145 -39.9785 9.0845 -5.7690 4.3558 -1.5678 7.6496 -2.1028 -1.5875 7.7235 15.7038 14.5369 -23.2850 19.5171 -15.7571 -33.0858 0.0000 -158.9262 -1.4715 -15.3855 -5.5303 32.8623 0.0000 24.3270 -12.6700 -6.7314 -9.7968 -14.3630 -16.2115 38.2613 8.5890 0.0000 19.4597 4.7194 -10.6944 23.9830 33.1476 -0.0000 -26.2537 -13.6830 24.2460 -7.9129 13.5523 -0.0000 -0.0000 -19.2272 10.0305 7.4375 3.0461 -0.0000 -0.0000 -52.0826 -44.9117 -35.6405 124.5732 -0.0000 -0.0000 -7.9924 -11.6804 26.5967 13.9094 -0.0000 -0.0000
8.3815 36.5073 -2.7210 15.5840 -39.9308 9.0350 -5.8035 4.3052 -1.6323 7.6426 -2.1513 -1.4986 7.7510 15.6959 14.5675 -23.0528 19.4316 -15.7004 -33.0131 0.0000 -159.0603 -1.5224 -15.4861 -5.6844 32.8623 0.0000 24.3270 -12.6744 -6.7647 -9.7775 -14.4353 -16.3268 38.2315 8.4962 -0.0000 19.5056 4.7412 -10.7468 23.9788 33.1476 -0.0000 -26.2537 -13.6847 24.2659 -7.8805 13.5732 -0.0000 -0.0000 -19.2662 10.0012 7.3051 3.1976 -0.0000 -0.0000 -52.0706 -44.9170 -35.6460 124.5323 -0.0000 -0.0000 -7.7892 -11.3640 26.2708 13.3264 -0.0000 -0.0000
8.3820 36.5062 -2.7222 15.5320 -39.8822 8.9857 -5.8139 4.2530 -1.7216 7.6509 -2.2017 -1.3554 7.8075 15.7176 14.6062 -22.9805 19.3791 -15.6534 -32.9444 0.0000 -159.1204 -1.5614 -15.4318 -5.8489 32.8623 0.0000 24.3270 -12.7150 -6.7880 -9.7584 -14.4424 -16.4257 38.2137 8.3947 -0.0000 19.5620 4.7332 -10.7054 24.0241 33.1476 -0.0000 -26.2537 -13.6744 24.2851 -7.8617 13.6157 -0.0000 -0.0000 -19.2723 9.9571 7.1938 3.1618 -0.0000 -0.0000 -52.0437 -44.8882 -35.6633 124.4634 -0.0000 -0.0000 -7.5983 -11.0274 26.0145 12.7590 -0.0000 -0.0000
8.3823 36.5046 -2.7223 15.4982 -39.8247 8.9476 -5.8485 4.1828 -1.7946 7.6578 -2.2438 -1.2653 7.8202 15.7207 14.6344 -22.8542 19.3586 -15.5776 -32.8947 -0.0000 -159.2973 -1.6260 -15.3194 -6.1324 32.8623 0.0000 24.3270 -12.7171 -6.8212 -9.7629 -14.4913 -16.5308 38.2237 8.3278 0.0000 19.6528 4.7501 -10.7302 24.0517 33.1476 -0.0000 -26.2537 -13.6837 24.2480 -7.8490 13.6593 -0.0000 -0.0000 -19.3033 9.9595 7.1522 3.1952 -0.0000 -0.0000 -52.0223 -44.8465 -35.6892 124.3651 -0.0000 -0.0000 -7.4868 -10.7616 25.9573 12.4827 -0.0000 -0.0000
8.3827 36.5017 -2.7221 15.4401 -39.7602 8.8911 -5.8639 4.1026 -1.8767 7.6654 -2.2854 -1.1581 7.8698 15.7850 14.6760 -22.8082 19.3158 -15.5278 -32.8828 0.0000 -159.4195 -1.6197 -15.3103 -6.1126 32.8623 0.0000 24.3270 -12.7306 -6.8343 -9.7383 -14.5490 -16.6389 38.1962 8.2343 0.0000 19.7090 4.7486 -10.7004 24.1033 33.1476 -0.0000 -26.2537 -13.6735 24.2058 -7.8395 13.7021 -0.0000 -0.0000 -19.3433 9.9810 7.1434 3.2038 -0.0000 -0.0000 -51.9817 -44.7969 -35.7227 124.2440 -0.0000 -0.0000 -7.4509 -10.5972 26.0527 12.5018 -0.0000 -0.0000
8.3821 36.4985 -2.7200 15.3510 -39.6901 8.8216 -5.8429 4.0247 -1.9838 7.6422 -2.3324 -1.0035 7.8372 15.8054 14.7506 -22.7587 19.3598 -15.4667 -32.9003 -0.0000 -159.3247 -1.6219 -15.2069 -6.1610 32.8623 0.0000 24.3270 -12.7654 -6.8572 -9.6803 -14.5131 -16.6875 38.1605 8.1674 -0.0000 19.6658 4.7721 -10.7499 24.1117 33.1476 -0.0000 -26.2537 -13.6375 24.1387 -7.8409 13.7443 -0.0000 -0.0000 -19.3660 10.0075 7.1269 3.2012 -0.0000 -0.0000 -51.9314 -44.7390 -35.7847 124.0875 -0.0000 -0.0000 -7.4745 -10.4274 26.0660 12.7185 -0.0000 -0.0000
8.3830 36.4953 -2.7195 15.3163 -39.6344 8.7845 -5.8747 3.9795 -2.0682 7.6308 -2.4152 -0.8974 7.8043 15.7980 14.8003 -22.6976 19.3910 -15.3752 -32.9122 -0.0000 -159.3913 -1.6127 -15.2715 -6.1014 32.8623 0.0000 24.3270 -12.7954 -6.8954 -9.6546 -14.4923 -16.7637 38.1448 8.1327 0.0000 19.6691 4.7763 -10.7286 24.1728 33.1476 -0.0000 -26.2537 -13.6550 24.1039 -7.8319 13.8170 -0.0000 -0.0000 -19.4055 9.9937 7.1781 3.2054 -0.0000 -0.0000 -51.8871 -44.6391 -35.7997 123.9263 -0.0000 -0.0000 -7.5795 -10.4630 26.7296 13.4382 -0.0000 -0.0000
8.3835 36.4919 -2.7174 15.2793 -39.5727 8.7541 -5.9056 3.9282 -2.1670 7.6083 -2.5029 -0.7844 7.7803 15.8288 14.8472 -22.7054 19.4113 -15.3008 -32.9476 -0.0000 -159.4625 -1.6288 -15.3548 -6.1292 32.8623 0.0000 24.3270 -12.8398 -6.9480 -9.6216 -14.4518 -16.8190 38.1321 8.1036 -0.0000 19.6534 4.7833 -10.7300 24.2014 33.1476 -0.0000 -26.2537 -13.6533 24.0689 -7.8414 13.8501 -0.0000 -0.0000 -19.4556 9.9628 7.2380 3.3265 -0.0000 -0.0000 -51.8914 -44.5565 -35.8627 123.6989 -0.0000 -0.0000 -7.5114 -10.3034 26.4003 13.0233 -0.0000 -0.0000
8.3842 36.4880 -2.7148 15.2284 -39.5250 8.7179 -5.9150 3.8644 -2.2649 7.5788 -2.5339 -0.6767 7.7533 15.8692 14.8784 -22.6854 19.4716 -15.2036 -32.9949 -0.0000 -159.5310 -1.6394 -15.3076 -6.1874 32.8623 0.0000 24.3270 -12.8553 -7.0053 -9.5793 -14.4067 -16.8061 38.1412 8.0932 0.0000 19.5691 4.7967 -10.7617 24.1994 33.1476 -0.0000 -26.2537 -13.6414 24.0370 -7.8467 13.9015 -0.0000 -0.0000 -19.4944 9.9533 7.2659 3.3445 -0.0000 -0.0000 -51.8652 -44.4571 -35.9072 123.4598 -0.0000 -0.0000 -7.5145 -10.2531 26.2637 12.7891 -0.0000 -0.0000
8.3844 36.4843 -2.7117 15.1548 -39.4911 8.6685 -5.8931 3.8142 -2.3598 7.5175 -2.5552 -0.6055 7.7151 15.9096 14.9266 -22.7464 19.5536 -15.1291 -33.0431 0.0000 -159.5173 -1.6401 -15.3723 -6.1647 32.8623 0.0000 24.3270 -12.8549 -7.0622 -9.5332 -14.4066 -16.8228 38.1485 8.1009 0.0000 19.5463 4.7858 -10.7596 24.1542 33.1476 -0.0000 -26.2537 -13.6052 24.0076 -7.8518 13.9420 -0.0000 -0.0000 -19.5168 9.9539 7.2840 3.3027 -0.0000 -0.0000 -51.8087 -44.3400 -35.9298 123.1951 -0.0000 -0.0000 -7.5531 -10.2159 25.9655 12.5267 -0.0000 -0.0000
8.3841 36.4807 -2.7085 15.0861 -39.4762 8.6185 -5.8987 3.7932 -2.4451 7.5486 -2.6286 -0.5256 7.7080 15.9116 14.9612 -22.7332 19.6492 -15.0337 -33.0915 -0.0000 -159.5636 -1.6598 -15.3268 -6.2562 32.8623 0.0000 24.3270 -12.8504 -7.0946 -9.4935 -14.3756 -16.8642 38.1548 8.1084 0.0000 19.5414 4.7623 -10.7309 24.1053 33.1476 -0.0000 -26.2537 -13.5724 23.9837 -7.8486 13.9827 -0.0000 -0.0000 -19.5633 9.9768 7.2940 3.3369 -0.0000 -0.0000 -51.7270 -44.1939 -35.9013 122.9307 -0.0000 -0.0000 -7.7023 -10.2695 25.8610 12.5435 -0.0000 -0.0000
8.3825 36.4769 -2.7039 14.9934 -39.4468 8.5517 -5.8789 3.7797 -2.5330 7.5509 -2.7563 -0.4281 7.7094 15.9201 14.9842 -22.8213 19.7315 -14.9342 -33.1486 -0.0000 -159.5912 -1.6746 -15.4310 -6.2702 32.8623 0.0000 24.3270 -12.8298 -7.1615 -9.4504 -14.3671 -16.9132 38.1636 8.1559 -0.0000 19.5085 4.7513 -10.7262 24.0650 33.1476 -0.0000 -26.2537 -13.5194 23.9643 -7.8481 14.0273 -0.0000 -0.0000 -19.6064 9.9665 7.3093 3.3241 -0.0000 -0.0000 -51.6416 -44.0867 -35.9291 122.6630 -0.0000 -0.0000 -7.9457 -10.3724 25.7951 12.6789 -0.0000 -0.0000
8.3811 36.4735 -2.7009 14.9366 -39.4239 8.5031 -5.8947 3.7381 -2.6052 7.5595 -2.7859 -0.3732 7.6763 15.9163 15.0276 -22.8228 19.8490 -14.8394 -33.1588 -0.0000 -159.5940 -1.6896 -15.4002 -6.3382 32.8623 0.0000 24.3270 -12.8168 -7.1910 -9.4210 -14.3205 -16.9293 38.2035 8.1868 0.0000 19.4417 4.7389 -10.7362 23.9892 33.1476 -0.0000 -26.2537 -13.5035 23.9328 -7.8362 14.0759 -0.0000 -0.0000 -19.6497 9.9754 7.3272 3.3226 -0.0000 -0.0000 -51.5872 -43.9796 -35.9184 122.3836 -0.0000 -0.0000 -8.1633 -10.4589 25.4136 12.5321 -0.0000 -0.0000
8.3786 36.4707 -2.6955 14.8034 -39.4021 8.4112 -5.8339 3.6963 -2.6861 7.5480 -2.8079 -0.3091 7.6539 15.9207 15.0484 -22.8396 19.9577 -14.7346 -33.2231 -0.0000 -159.6695 -1.7012 -15.4489 -6.3621 32.8623 0.0000 24.3270 -12.8191 -7.2299 -9.3794 -14.2811 -16.9667 38.2317 8.2720 0.0000 19.4085 4.7491 -10.7643 23.9803 33.1476 -0.0000 -26.2537 -13.4111 23.9034 -7.8344 14.1126 -0.0000 -0.0000 -19.6777 9.9654 7.3430 3.2983 -0.0000 -0.0000 -51.4782 -43.8760 -35.9367 122.1082 -0.0000 -0.0000 -8.4064 -10.6026 25.1707 12.4138 -0.0000 -0.0000
8.3769 36.4681 -2.6921 14.7285 -39.3820 8.3502 -5.8235 3.6689 -2.7650 7.5385 -2.8507 -0.2374 7.6389 15.9442 15.0924 -22.9108 20.0611 -14.6592 -33.2468 0.0000 -159.6688 -1.7187 -15.4318 -6.4338 32.8623 0.0000 24.3270 -12.8177 -7.2831 -9.3424 -14.2716 -16.9965 38.2638 8.3007 0.0000 19.3906 4.7407 -10.7616 23.9479 33.1476 -0.0000 -26.2537 -13.3719 23.8797 -7.8227 14.1470 -0.0000 -0.0000 -19.7192 9.9755 7.3798 3.3287 -0.0000 -0.0000 -51.3988 -43.7520 -35.9253 121.8406 -0.0000 -0.0000 -8.5948 -10.7956 25.2409 12.5156 -0.0000 -0.0000
8.3742 36.4655 -2.6858 14.5817 -39.3551 8.2541 -5.7477 3.6368 -2.8616 7.5211 -2.9206 -0.1469 7.6100 15.9443 15.1503 -23.0032 20.1956 -14.5851 -33.3082 -0.0000 -159.6546 -1.7247 -15.5002 -6.4286 32.8623 0.0000 24.3270 -12.8276 -7.3150 -9.2881 -14.2806 -17.0711 38.2703 8.3382 0.0000 19.4128 4.7393 -10.7679 23.9292 33.1476 -0.0000 -26.2537 -13.2515 23.8649 -7.8311 14.1487 -0.0000 -0.0000 -19.7513 9.9745 7.3392 3.3565 -0.0000 -0.0000 -51.2613 -43.5977 -35.9280 121.5721 -0.0000 -0.0000 -8.8285 -11.0930 25.7723 13.2990 -0.0000 -0.0000
8.3731 36.4626 -2.6784 14.4221 -39.3358 8.1630 -5.6496 3.6123 -2.9641 7.4857 -2.9612 -0.0879 7.5848 15.9189 15.1704 -22.8544 20.2973 -14.4902 -33.3878 -0.0000 -159.9593 -1.7875 -15.5728 -6.6308 32.8623 0.0000 24.3270 -12.8412 -7.3440 -9.2474 -14.2282 -17.0861 38.3049 8.3536 0.0000 19.3533 4.7381 -10.7738 23.9122 33.1476 -0.0000 -26.2537 -13.1085 23.8414 -7.8549 14.1488 -0.0000 -0.0000 -19.7690 9.9721 7.3088 3.3643 -0.0000 -0.0000 -51.1587 -43.4329 -35.9837 121.2740 -0.0000 -0.0000 -8.7843 -11.0855 25.6489 13.1556 -0.0000 -0.0000
8.3726 36.4598 -2.6719 14.2784 -39.2917 8.0824 -5.5707 3.5662 -3.0674 7.4563 -2.9871 -0.0182 7.5262 15.8833 15.2583 -22.8547 20.4428 -14.4436 -33.3833 0.0000 -160.0585 -1.8087 -15.5150 -6.7330 32.8623 0.0000 24.3270 -12.8327 -7.3812 -9.2203 -14.2190 -17.1186 38.3586 8.3714 0.0000 19.3459 4.7471 -10.7909 23.9194 33.1476 -0.0000 -26.2537 -12.9826 23.8286 -7.8815 14.1449 -0.0000 -0.0000 -19.7935 9.9567 7.2669 3.3485 -0.0000 -0.0000 -51.0833 -43.2485 -36.0594 120.9523 -0.0000 -0.0000 -8.6774 -10.9943 25.3528 12.8320 -0.0000 -0.0000
